<svg width="26" height="27" viewBox="0 0 26 27" fill="none" xmlns="http://www.w3.org/2000/svg">
    <path d="M21.6343 10.5737C21.6343 10.8583 21.5339 11.1261 21.333 11.327L12.2426 20.4174C12.0417 20.6183 11.7571 20.7355 11.4725 20.7355C11.2046 20.7355 10.92 20.6183 10.7192 20.4174L4.65888 14.3571C4.45799 14.1562 4.35754 13.8884 4.35754 13.6038C4.35754 13.3192 4.45799 13.0346 4.65888 12.8337L6.18232 11.327C6.38321 11.1261 6.65107 11.0089 6.93567 11.0089C7.22027 11.0089 7.48812 11.1261 7.68902 11.327L11.4725 15.1105L18.3029 8.29688C18.5038 8.09598 18.7716 7.97879 19.0562 7.97879C19.3408 7.97879 19.6087 8.09598 19.8096 8.29688L21.333 9.80357C21.5339 10.0045 21.6343 10.2891 21.6343 10.5737ZM25.8531 13.2857C25.8531 6.1875 20.0942 0.42857 12.9959 0.42857C5.89772 0.42857 0.138794 6.1875 0.138794 13.2857C0.138794 20.3839 5.89772 26.1429 12.9959 26.1429C20.0942 26.1429 25.8531 20.3839 25.8531 13.2857Z" fill="white"/>
</svg>
